<svg data-v-423bf9ae="" xmlns="http://www.w3.org/2000/svg" viewBox="0 0 254.6034536223497 60" class="font"><!----><!----><!----><g data-v-423bf9ae="" id="59a82143-fdbd-4247-aba2-3173446bad26" fill="black" transform="matrix(5.469462036417144,0,0,5.469462036417144,-4.211483749460967,-22.534182487271217)"><path d="M3.78 13.38C3.00 13.38 2.70 13.08 2.70 12.01L2.70 8.55L4.38 8.55L4.38 6.92L2.70 6.92L2.70 4.97L0.77 4.97L0.77 11.96C0.77 14.07 1.39 15.09 3.33 15.09C3.77 15.09 4.20 15.04 4.38 14.99L4.38 13.31C4.21 13.36 3.99 13.38 3.78 13.38ZM10.25 14.92L11.91 14.92L11.91 9.24C11.91 7.07 10.70 6.34 8.90 6.34C6.93 6.34 5.89 7.17 5.89 9.24L7.59 9.24C7.59 8.26 8.04 7.90 8.89 7.90C9.72 7.90 10.12 8.32 10.12 9.28L10.12 10.14C9.73 10.09 9.27 10.05 8.90 10.05C6.61 10.05 5.64 11.00 5.64 12.70C5.64 14.25 6.64 15.09 8.06 15.09C9.00 15.09 9.73 14.80 10.18 14.28ZM10.12 12.05C10.12 13.01 9.44 13.54 8.67 13.54C7.90 13.54 7.50 13.19 7.50 12.54C7.50 11.77 7.92 11.37 9.06 11.37C9.32 11.37 9.83 11.40 10.12 11.45ZM16.60 9.77C15.53 9.60 15.19 9.38 15.19 8.74C15.19 8.26 15.54 7.95 16.35 7.95C17.25 7.95 17.58 8.33 17.60 8.96L19.33 8.96C19.33 7.28 18.31 6.34 16.34 6.34C14.49 6.34 13.37 7.22 13.37 8.82C13.37 10.58 14.42 11.20 16.16 11.44C17.25 11.58 17.64 11.82 17.64 12.57C17.64 13.16 17.21 13.48 16.41 13.48C15.43 13.48 15.02 13.12 15.01 12.42L13.22 12.42C13.22 14.10 14.20 15.09 16.30 15.09C18.30 15.09 19.50 14.17 19.50 12.45C19.50 10.56 18.12 10.00 16.60 9.77ZM27.78 6.51L25.54 6.51L23.41 9.62L22.79 9.62L22.79 4.12L20.90 4.12L20.90 14.92L22.78 14.92L22.78 11.27L23.44 11.27L25.76 14.92L28.08 14.92L24.96 10.35ZM33.26 12.40C33.22 13.13 32.91 13.54 31.95 13.54C30.98 13.54 30.60 13.02 30.60 11.98L30.60 11.28L35.08 11.28L35.08 9.55C35.08 7.34 34.06 6.34 31.95 6.34C29.79 6.34 28.76 7.49 28.76 9.58L28.76 11.79C28.76 14.11 29.78 15.09 31.96 15.09C34.12 15.09 34.96 14.15 35.01 12.40ZM31.96 7.91C32.93 7.91 33.29 8.43 33.29 9.53L33.29 9.84L30.60 9.84L30.60 9.59C30.60 8.39 30.98 7.91 31.96 7.91ZM40.35 6.34C39.40 6.34 38.77 6.59 38.29 7.08L38.21 6.51L36.57 6.51L36.57 14.92L38.46 14.92L38.46 9.39C38.46 8.44 38.96 8.01 39.75 8.01C40.68 8.01 40.99 8.47 40.99 9.62L40.99 14.92L42.88 14.92L42.88 9.60C42.88 8.46 43.39 8.01 44.18 8.01C45.12 8.01 45.43 8.47 45.43 9.58L45.43 14.92L47.32 14.92L47.32 9.38C47.32 7.28 46.59 6.34 44.65 6.34C43.62 6.34 42.83 6.69 42.36 7.34C41.94 6.65 41.29 6.34 40.35 6.34Z"></path></g><!----><!----></svg>